HIERARCHY
ROOT hip
{
  OFFSET 0 0 0
  CHANNELS 6 Xposition Yposition Zposition Zrotation Yrotation Xrotation
  JOINT abdomen
  {
    OFFSET 0 20.6881 -0.73152
    CHANNELS 3 Zrotation Xrotation Yrotation
    JOINT chest
    {
      OFFSET 0 11.7043 -0.48768
      CHANNELS 3 Zrotation Xrotation Yrotation
      JOINT neck
      {
        OFFSET 0 22.1894 -2.19456
        CHANNELS 3 Zrotation Xrotation Yrotation
        JOINT head
        {
          OFFSET -0.24384 7.07133 1.2192
          CHANNELS 3 Zrotation Xrotation Yrotation
          JOINT leftEye
          {
            OFFSET 4.14528 8.04674 8.04672
            CHANNELS 3 Zrotation Xrotation Yrotation
            End Site
            {
              OFFSET 1 0 0
            }
          }
          JOINT rightEye
          {
            OFFSET -3.6576 8.04674 8.04672
            CHANNELS 3 Zrotation Xrotation Yrotation
            End Site
            {
              OFFSET 1 0 0
            }
          }
        }
      }
      JOINT rCollar
      {
        OFFSET -2.68224 19.2634 -4.8768
        CHANNELS 3 Zrotation Xrotation Yrotation
        JOINT rShldr
        {
          OFFSET -8.77824 -1.95073 1.46304
          CHANNELS 3 Zrotation Xrotation Yrotation
          JOINT rForeArm
          {
            OFFSET -28.1742 -1.7115 0.48768
            CHANNELS 3 Zrotation Xrotation Yrotation
            JOINT rHand
            {
              OFFSET -22.5879 0.773209 7.07136
              CHANNELS 3 Zrotation Xrotation Yrotation
              JOINT rThumb1
              {
                OFFSET -1.2192 -0.487915 3.41376
                CHANNELS 3 Zrotation Xrotation Yrotation
                JOINT rThumb2
                {
                  OFFSET -3.37035 -0.52449 3.41376
                  CHANNELS 3 Zrotation Xrotation Yrotation
                  End Site
                  {
                    OFFSET -1.78271 -1.18214 1.43049
                  }
                }
              }
              JOINT rIndex1
              {
                OFFSET -7.75947 0.938293 5.60832
                CHANNELS 3 Zrotation Xrotation Yrotation
                JOINT rIndex2
                {
                  OFFSET -2.54057 -0.884171 1.56538
                  CHANNELS 3 Zrotation Xrotation Yrotation
                  End Site
                  {
                    OFFSET -1.62519 -0.234802 1.16502
                  }
                }
              }
              JOINT rMid1
              {
                OFFSET -8.24714 1.18213 3.41376
                CHANNELS 3 Zrotation Xrotation Yrotation
                JOINT rMid2
                {
                  OFFSET -3.10165 -0.590103 1.0647
                  CHANNELS 3 Zrotation Xrotation Yrotation
                  End Site
                  {
                    OFFSET -2.48547 -0.328903 0.83742
                  }
                }
              }
              JOINT rRing1
              {
                OFFSET -8.82822 0.546677 1.51678
                CHANNELS 3 Zrotation Xrotation Yrotation
                JOINT rRing2
                {
                  OFFSET -2.60934 -0.819778 -0.0198488
                  CHANNELS 3 Zrotation Xrotation Yrotation
                  End Site
                  {
                    OFFSET -2.33842 -0.294052 0.168128
                  }
                }
              }
              JOINT rPinky1
              {
                OFFSET -8.27202 -0.0477905 -0.4584
                CHANNELS 3 Zrotation Xrotation Yrotation
                JOINT rPinky2
                {
                  OFFSET -1.82734 -0.647385 -0.700984
                  CHANNELS 3 Zrotation Xrotation Yrotation
                  End Site
                  {
                    OFFSET -1.69225 -0.51767 -0.607171
                  }
                }
              }
            }
          }
        }
      }
      JOINT lCollar
      {
        OFFSET 2.68224 19.2634 -4.8768
        CHANNELS 3 Zrotation Xrotation Yrotation
        JOINT lShldr
        {
          OFFSET 8.77824 -1.95073 1.46304
          CHANNELS 3 Zrotation Xrotation Yrotation
          JOINT lForeArm
          {
            OFFSET 28.1742 -1.7115 0.48768
            CHANNELS 3 Zrotation Xrotation Yrotation
            JOINT lHand
            {
              OFFSET 22.5879 0.773209 7.07136
              CHANNELS 3 Zrotation Xrotation Yrotation
              JOINT lThumb1
              {
                OFFSET 1.2192 -0.487915 3.41376
                CHANNELS 3 Zrotation Xrotation Yrotation
                JOINT lThumb2
                {
                  OFFSET 3.37035 -0.52449 3.41376
                  CHANNELS 3 Zrotation Xrotation Yrotation
                  End Site
                  {
                    OFFSET 1.78271 -1.18214 1.43049
                  }
                }
              }
              JOINT lIndex1
              {
                OFFSET 7.75947 0.938293 5.60832
                CHANNELS 3 Zrotation Xrotation Yrotation
                JOINT lIndex2
                {
                  OFFSET 2.54057 -0.884171 1.56538
                  CHANNELS 3 Zrotation Xrotation Yrotation
                  End Site
                  {
                    OFFSET 1.62519 -0.234802 1.16502
                  }
                }
              }
              JOINT lMid1
              {
                OFFSET 8.24714 1.18213 3.41376
                CHANNELS 3 Zrotation Xrotation Yrotation
                JOINT lMid2
                {
                  OFFSET 3.10165 -0.590103 1.0647
                  CHANNELS 3 Zrotation Xrotation Yrotation
                  End Site
                  {
                    OFFSET 2.48547 -0.328903 0.83742
                  }
                }
              }
              JOINT lRing1
              {
                OFFSET 8.82822 0.546677 1.51678
                CHANNELS 3 Zrotation Xrotation Yrotation
                JOINT lRing2
                {
                  OFFSET 2.60934 -0.819778 -0.0198488
                  CHANNELS 3 Zrotation Xrotation Yrotation
                  End Site
                  {
                    OFFSET 2.33842 -0.294052 0.168128
                  }
                }
              }
              JOINT lPinky1
              {
                OFFSET 8.27202 -0.0477905 -0.4584
                CHANNELS 3 Zrotation Xrotation Yrotation
                JOINT lPinky2
                {
                  OFFSET 1.82734 -0.647385 -0.700984
                  CHANNELS 3 Zrotation Xrotation Yrotation
                  End Site
                  {
                    OFFSET 1.69225 -0.51767 -0.607171
                  }
                }
              }
            }
          }
        }
      }
    }
  }
  JOINT rButtock
  {
    OFFSET -8.77824 4.35084 1.2192
    CHANNELS 3 Zrotation Xrotation Yrotation
    JOINT rThigh
    {
      OFFSET 0 -1.70687 -2.19456
      CHANNELS 3 Zrotation Xrotation Yrotation
      JOINT rShin
      {
        OFFSET 0 -36.8199 0.73152
        CHANNELS 3 Zrotation Xrotation Yrotation
        JOINT rFoot
        {
          OFFSET 0.73152 -45.1104 -5.12064
          CHANNELS 3 Zrotation Xrotation Yrotation
          End Site
          {
            OFFSET -1.1221 -3.69964 12.103
          }
        }
      }
    }
  }
  JOINT lButtock
  {
    OFFSET 8.77824 4.35084 1.2192
    CHANNELS 3 Zrotation Xrotation Yrotation
    JOINT lThigh
    {
      OFFSET 0 -1.70687 -2.19456
      CHANNELS 3 Zrotation Xrotation Yrotation
      JOINT lShin
      {
        OFFSET 0 -36.8199 0.73152
        CHANNELS 3 Zrotation Xrotation Yrotation
        JOINT lFoot
        {
          OFFSET -0.73152 -45.1104 -5.12064
          CHANNELS 3 Zrotation Xrotation Yrotation
          End Site
          {
            OFFSET 1.1221 -3.69964 12.103
          }
        }
      }
    }
  }
}
MOTION
Frames:	4
Frame Time:	0.03333
-0.004999999877891834 79.71330048233209 -0.07600000181251451 -0.9379000663757324 3.549999713897705 4.833899974822998 -1.300920009613037 8.430889129638672 2.111799955368042 2.4927899837493896 -6.828680992126465 0.697039008140564 -4.310660362243652 10.593199729919434 -3.7769601345062256 5.518510341644287 -22.99610137939453 -5.959461212158203 -0.0 0.0 -0.0 -0.0 0.0 -0.0 -1.7268698923689836e-15 -1.0036200318616455e-14 5.887749733287165e-14 60.902801513671875 17.538101196289062 7.513769626617432 -12.7160005569458 -5.963509559631348 23.00459861755371 -0.04352489486336708 5.944310665130615 0.8384569883346558 -3.4744498944583313e-10 9.022149694004611e-10 -5.26168969505747e-11 -6.004990393826404e-10 1.5601999692194113e-09 -8.928199846103269e-11 -3.47437995040778e-10 9.022189662033497e-10 -5.263169761127173e-11 7.730909824371338 5.474879741668701 0.4173140823841095 -3.4744698784727746e-10 9.022189662033497e-10 -5.2619200663350796e-11 2.9055399894714355 0.9651829600334167 0.10290199518203735 -3.474430187999644e-10 9.022200209152231e-10 -5.2615398149491455e-11 10.27859878540039 0.73180091381073 0.025912316516041756 -3.4745001320501956e-10 9.022219638055162e-10 -5.260580165922235e-11 2.221669912338257 -0.733487069606781 -0.208919957280159 -1.8047498073086882e-15 -1.0040899657407822e-14 5.860729382269753e-14 -65.60859680175781 29.694599151611328 -25.783100128173828 14.974199295043945 -7.767770767211914 -27.535799026489258 0.0028412500396370888 1.437729835510254 -0.20211999118328094 -6.060789647932552e-10 -1.0250399418154643e-09 1.5797800567707299e-10 -1.0469098921106479e-09 -1.7697898702095927e-09 2.739789783934299e-10 -6.060869583990325e-10 -1.0250399418154643e-09 1.5799800356930405e-10 -7.730909824371338 5.474879741668701 -0.4173140823841095 -6.060780211036843e-10 -1.0250399418154643e-09 1.57982987802896e-10 -2.9055399894714355 0.9651829600334167 -0.10290199518203735 -6.060869583990325e-10 -1.0250399418154643e-09 1.5798098940145167e-10 -10.27859878540039 0.73180091381073 -0.025912316516041756 -6.060760227022399e-10 -1.0250399418154643e-09 1.5798200247996164e-10 -2.221669912338257 -0.733487069606781 0.208919957280159 -2.0321699480147914e-16 0.0 -3.8825099822884138e-19 2.0433199405670166 -31.43660545349121 -0.6100329160690308 -0.5263059735298157 47.86069869995117 0.9976750016212463 -3.89255952835083 -13.631200790405273 -9.949590682983398 2.0321699480147914e-16 0.0 3.8825099822884138e-19 -1.6699599027633667 -34.786895751953125 -4.761539936065674 0.5407289862632751 49.50480270385742 -1.0705499649047852 3.7809603214263916 -17.660701751708984 8.546219825744629
0.012899999943427562 79.69339731109066 -0.14900000311465958 -1.0108000040054321 3.4105000495910645 4.87060022354126 -1.3150700330734253 8.432170867919922 2.2594001293182373 2.4637200832366943 -6.812389850616455 0.7381000518798828 -4.275869846343994 10.532299995422363 -3.7871997356414795 5.462780475616455 -22.995302200317383 -5.990739822387695 -0.0 0.0 -0.0 -0.0 0.0 -0.0 1.933409961535175e-14 -1.9878398243872858e-13 9.392579623139843e-14 60.34769821166992 16.76620101928711 8.314571380615234 -12.694798469543457 -5.947940349578857 22.962997436523438 -0.044759903103113174 6.027050971984863 0.8502160310745239 -2.1149397511077694e-10 -3.2819499895531123e-10 1.2417399330999501e-09 -3.5466996006761065e-10 -5.755529386419767e-10 2.1468700150961695e-09 -2.1148899298495394e-10 -3.281900029517004e-10 1.2417199490855069e-09 7.730909824371338 5.474879741668701 0.4173140823841095 -2.1149698659073124e-10 -3.281900029517004e-10 1.2417399330999501e-09 2.9055399894714355 0.9651829600334167 0.10290199518203735 -2.1148700846129742e-10 -3.281880045502561e-10 1.2417399330999501e-09 10.27859878540039 0.73180091381073 0.025912316516041756 -2.1149899886996337e-10 -3.281869775939583e-10 1.2417500361294742e-09 2.221669912338257 -0.733487069606781 -0.208919957280159 1.9231400258628954e-14 -1.9878598821274768e-13 9.372700098680964e-14 -65.12519836425781 29.810503005981445 -26.53350257873535 15.184199333190918 -7.950750350952148 -27.968599319458008 0.0005312539869919419 0.6581319570541382 -0.09249849617481232 -1.9942798523686633e-09 -4.8165400556854365e-09 -5.373989586665573e-10 -3.45199979712163e-09 -8.328649769850927e-09 -9.232489772692531e-10 -1.9942798523686633e-09 -4.8165400556854365e-09 -5.373870237690426e-10 -7.730909824371338 5.474879741668701 -0.4173140823841095 -1.9942798523686633e-09 -4.8165400556854365e-09 -5.373929634622243e-10 -2.9055399894714355 0.9651829600334167 -0.10290199518203735 -1.9942998363831066e-09 -4.8165400556854365e-09 -5.373919642615022e-10 -10.27859878540039 0.73180091381073 -0.025912316516041756 -1.9942798523686633e-09 -4.8165400556854365e-09 -5.373870237690426e-10 -2.221669912338257 -0.733487069606781 0.208919957280159 -2.0321699480147914e-16 0.0 -3.8825099822884138e-19 2.0533998012542725 -31.605607986450195 -0.6763809323310852 -0.528952956199646 47.94580078125 1.0000100135803223 -3.8322298526763916 -13.643200874328613 -9.801639556884766 2.0321699480147914e-16 0.0 3.8825099822884138e-19 -2.171449899673462 -34.963294982910156 -5.049260139465332 0.5398679375648499 49.46770477294922 -1.0662198066711426 3.6297497749328613 -18.057798385620117 8.042320251464844
0.047500000715939905 79.6822982536894 -0.21700000578955783 -1.0749999284744263 3.2403998374938965 4.909799575805664 -1.3177099227905273 8.460709571838379 2.4116098880767822 2.4190101623535156 -6.81356954574585 0.7798329591751099 -4.234379768371582 10.552700996398926 -3.7837395668029785 5.427309989929199 -23.102399826049805 -5.991919994354248 -0.0 0.0 -0.0 -0.0 0.0 -0.0 1.2526299306625174e-14 -1.5639501141622575e-13 5.045709875850339e-14 59.80889892578125 16.090402603149414 9.109969139099121 -12.714099884033203 -5.9621100425720215 23.000900268554688 -0.04522410035133362 6.0566606521606445 0.8544259667396545 2.591069858670636e-10 -6.730320190051486e-10 7.268239343716232e-10 4.551539978248087e-10 -1.1675099775843023e-09 1.2539199678585078e-09 2.591130088269722e-10 -6.730279666911088e-10 7.268089463607907e-10 7.730909824371338 5.474879741668701 0.4173140823841095 2.591049874656193e-10 -6.730269674903866e-10 7.268209922806079e-10 2.9055399894714355 0.9651829600334167 0.10290199518203735 2.591150072284165e-10 -6.730250246000935e-10 7.268239343716232e-10 10.27859878540039 0.73180091381073 0.025912316516041756 2.591049874656193e-10 -6.730240253993713e-10 7.26833981889996e-10 2.221669912338257 -0.733487069606781 -0.208919957280159 1.2446799335294727e-14 -1.563939814241619e-13 5.0326699730339486e-14 -64.64530944824219 29.886499404907227 -27.236495971679688 15.401698112487793 -8.142970085144043 -28.419599533081055 0.00017949000175576657 -0.11355199664831161 0.01596130058169365 -1.0330699629079731e-09 -2.321239866986957e-09 -3.999239828189616e-10 -1.788319825557494e-09 -4.0120800015586155e-09 -6.882719394418757e-10 -1.0330699629079731e-09 -2.321239866986957e-09 -3.999069964066848e-10 -7.730909824371338 5.474879741668701 -0.4173140823841095 -1.0330699629079731e-09 -2.321239866986957e-09 -3.999209852167951e-10 -2.9055399894714355 0.9651829600334167 -0.10290199518203735 -1.0330899469224164e-09 -2.321239866986957e-09 -3.999179876146286e-10 -10.27859878540039 0.73180091381073 -0.025912316516041756 -1.0330699629079731e-09 -2.321239866986957e-09 -3.999199582604973e-10 -2.221669912338257 -0.733487069606781 0.208919957280159 -2.0321699480147914e-16 0.0 -3.8825099822884138e-19 2.0621397495269775 -31.714000701904297 -0.7361400723457336 -0.5293430685997009 47.947509765625 0.9985389709472656 -3.7507100105285645 -13.651300430297852 -9.59065055847168 2.0321699480147914e-16 0.0 3.8825099822884138e-19 -2.5708603858947754 -35.06769943237305 -5.374940395355225 0.538345992565155 49.410797119140625 -1.061829924583435 3.560380220413208 -17.990703582763672 7.891900062561035
0.08369999998195418 79.68009893277664 -0.26500000728536205 -1.1754001379013062 3.0790998935699463 4.921000957489014 -1.3088600635528564 8.521520614624023 2.5608303546905518 2.3744499683380127 -6.818389892578125 0.8207520842552185 -4.20212984085083 10.580500602722168 -3.7801599502563477 5.432290554046631 -23.209598541259766 -5.984370708465576 -0.0 0.0 -0.0 -0.0 0.0 -0.0 4.490999603044875e-15 -5.72531049804724e-14 -3.1308601426070478e-15 59.269100189208984 15.516599655151367 9.929728507995605 -12.772599220275879 -6.0054707527160645 23.115598678588867 -0.04446040466427803 6.006949424743652 0.8473589420318604 6.496169713265942e-10 -6.479430325612157e-10 -1.4792099489735477e-10 1.1236599428698923e-09 -1.1178399317302024e-09 -2.604189919264144e-10 6.496229665309272e-10 -6.479389802471758e-10 -1.479310007823642e-10 7.730909824371338 5.474879741668701 0.4173140823841095 6.496149729251499e-10 -6.479379810464536e-10 -1.4792399249952126e-10 2.9055399894714355 0.9651829600334167 0.10290199518203735 6.496240212428006e-10 -6.479359271338581e-10 -1.479199818188448e-10 10.27859878540039 0.73180091381073 0.025912316516041756 6.496149729251499e-10 -6.479349279331359e-10 -1.479120020908553e-10 2.221669912338257 -0.733487069606781 -0.208919957280159 4.454569563016415e-15 -5.72481989656419e-14 -3.2302499298466833e-15 -64.16939544677734 29.934898376464844 -27.930601119995117 15.622797966003418 -8.34148120880127 -28.880399703979492 0.00102783995680511 -0.9154031872749329 0.12866298854351044 1.8070299423467162e-10 8.695109632306242e-10 -9.14949990771241e-11 3.1319699611565e-10 1.507429958635953e-09 -1.5888100557415186e-10 1.8069999663250513e-10 8.69515015544664e-10 -9.147280155552551e-11 -7.730909824371338 5.474879741668701 -0.4173140823841095 1.8070600571462592e-10 8.695119624313463e-10 -9.14949990771241e-11 -2.9055399894714355 0.9651829600334167 -0.10290199518203735 1.806949867511065e-10 8.695129616320685e-10 -9.14918002470344e-11 -10.27859878540039 0.73180091381073 -0.025912316516041756 1.8070399343539378e-10 8.695129616320685e-10 -9.150140367619741e-11 -2.221669912338257 -0.733487069606781 0.208919957280159 -2.0321699480147914e-16 0.0 -3.8825099822884138e-19 2.090719699859619 -31.762203216552734 -0.7786889672279358 -0.5281559824943542 47.89430618286133 0.9947259426116943 -3.670909881591797 -13.642701148986816 -9.382211685180664 2.0321699480147914e-16 0.0 3.8825099822884138e-19 -2.86106014251709 -35.112998962402344 -5.7398505210876465 0.5369020700454712 49.34040069580078 -1.0547099113464355 3.4454500675201416 -17.541898727416992 7.738572120666504
